<svg width="250" height="292" viewBox="0 0 250 292" fill="none" xmlns="http://www.w3.org/2000/svg">
<g clip-path="url(#clip0)">
<path d="M167.419 139.542C167.419 139.623 167.419 139.703 167.419 139.703C165.968 146.713 169.111 152.917 170.722 159.442C172.575 166.774 172.978 174.186 171.366 181.598C170.802 184.257 169.594 184.579 167.177 183.371C156.059 177.57 144.457 175.314 132.211 178.94C130.599 179.423 129.23 180.712 127.618 181.357C126.732 181.679 125.363 182.001 124.718 181.598C117.306 176.442 109.169 176.764 100.87 177.973C94.9081 178.859 89.1879 180.471 84.0316 183.774C82.4202 184.821 81.0506 184.015 80.5672 181.921C79.1975 175.717 79.1976 169.513 80.4061 163.31C81.2923 158.878 82.9036 154.608 84.1927 150.177C84.515 149.13 84.7567 148.082 84.8373 147.035C85.079 139.704 84.7567 132.372 85.5624 125.121C86.6903 114.567 88.6239 104.173 90.3158 93.6996C90.6381 91.4438 91.2021 89.1879 91.9272 87.0931C92.2494 86.2069 93.3774 85.0789 94.1025 85.0789C94.8276 85.0789 95.9555 86.2874 96.1972 87.1737C98.2114 94.9081 101.515 101.917 105.946 108.524C106.913 109.894 107.879 110.216 109.491 109.894C120.448 107.718 131.486 107.718 142.523 109.894C143.974 110.135 144.94 109.974 145.827 108.766C150.258 102.24 153.642 95.1498 155.575 87.496C155.898 86.2069 156.3 85.0789 157.751 84.9984C159.281 84.9178 159.845 85.9652 160.087 87.2543C162.021 98.3725 164.196 109.571 165.888 120.77C166.855 126.974 167.096 133.339 167.66 139.623C167.58 139.542 167.499 139.542 167.419 139.542ZM107.638 162.746C112.391 162.746 116.903 160.732 119.481 158.073C120.77 156.784 120.69 155.575 119.481 154.206C113.841 148.244 102.884 148.244 97.164 154.286C95.875 155.656 95.875 156.784 97.2446 158.073C100.467 160.973 104.173 162.585 107.638 162.746ZM143.732 162.746C148.083 162.585 151.708 160.973 154.77 158.073C156.139 156.703 156.139 155.495 154.689 154.125C148.727 148.324 138.414 148.324 132.614 154.206C131.244 155.575 131.163 156.784 132.694 158.153C135.756 161.054 139.462 162.585 143.732 162.746Z" fill="#5571D7"/>
<path d="M53.5772 279.488C53.7383 282.469 53.98 285.369 54.0606 288.35C54.1412 290.767 53.2549 291.734 51.2407 291.976C48.9043 292.137 47.5347 291.089 47.293 288.753C46.9707 285.691 46.9707 282.549 46.5678 279.568C46.4067 278.44 45.7622 277.151 44.8759 276.426C42.8618 274.573 42.2978 274.815 41.4115 277.393C40.6864 279.488 39.0751 280.454 37.0609 279.89C35.2884 279.407 34.3216 277.957 34.6439 275.862C34.8856 274.492 35.0467 273.526 33.2743 272.881C31.7435 272.317 31.2601 270.786 31.5018 269.175C31.7435 267.564 32.952 266.516 34.4022 266.597C36.7386 266.597 37.222 265.227 37.6249 263.374C39.6391 255.076 41.7338 246.697 43.9091 238.398C44.5537 235.74 46.2456 234.612 48.3403 235.095C50.2739 235.579 50.999 236.948 51.0796 238.801C51.563 246.213 52.0464 253.626 52.4493 261.118C52.7715 267.161 53.1744 273.365 53.5772 279.488C53.4966 279.488 53.4966 279.488 53.5772 279.488ZM45.4399 264.26C45.1982 264.26 44.9565 264.18 44.7954 264.18C44.5537 265.147 44.1508 266.033 44.0703 267C44.0703 267.322 44.6342 267.725 44.8759 268.128C45.1982 267.805 45.7622 267.483 45.7622 267.161C45.6816 266.114 45.5205 265.147 45.4399 264.26Z" fill="#5571D7"/>
<path d="M61.0699 248.872C60.4254 248.711 59.5392 248.711 59.4586 248.469C59.2975 247.905 59.378 246.938 59.7003 246.697C60.1031 246.375 60.9088 246.616 61.9562 246.616C62.1979 246.213 62.5201 245.408 62.923 244.683C66.3068 237.915 72.8327 234.209 79.7615 235.256C84.6761 235.981 89.5102 242.104 89.0268 247.1C88.8656 248.792 87.9794 250 86.2069 250.322C84.1927 250.725 82.6619 250 81.8563 248.308C81.3729 247.261 81.2117 246.133 80.7283 245.085C79.6004 242.588 77.2639 241.943 74.8469 243.232C71.5437 245.005 69.5295 247.905 68.4016 251.37C66.5485 257.171 66.7902 262.891 69.7712 268.289C71.9465 272.237 76.7 273.445 79.8421 270.867C81.1312 269.739 81.8563 267.805 82.5814 266.194C83.4676 264.099 84.515 263.294 86.6903 263.455C88.8656 263.616 90.3158 265.469 89.9936 267.644C89.1073 273.767 85.079 278.279 79.3587 279.649C73.3162 281.018 66.9513 278.36 63.6481 273.123C59.6197 266.758 58.9752 259.829 60.1837 252.578C60.5865 251.289 60.9088 250 61.0699 248.872Z" fill="#5571D7"/>
<path d="M103.448 258.621C104.898 257.976 105.785 257.573 106.671 257.171C109.007 256.123 110.941 256.607 111.747 258.298C112.633 260.151 111.988 261.843 109.733 263.052C108.363 263.858 106.913 264.583 105.462 265.308C102.562 266.919 101.998 268.289 103.045 271.914C103.69 271.673 104.254 271.431 104.818 271.109C110.296 267.886 116.258 265.872 122.382 264.341C125.363 263.616 127.618 264.986 127.538 267.403C127.538 269.336 126.571 270.303 124.073 270.867C116.661 272.398 109.974 275.459 103.771 279.81C102.804 280.454 102.079 281.502 101.031 281.824C99.9033 282.227 98.4531 282.469 97.2446 282.146C95.7138 281.824 95.3916 280.293 95.4721 278.843C95.6333 275.862 95.9555 272.801 96.0361 269.82C96.0361 268.45 95.7138 267.08 95.6333 265.711C95.5527 265.147 95.5527 264.502 95.6333 263.938C96.1167 258.782 96.6806 253.626 97.164 248.389C97.2446 247.905 96.8418 247.422 96.6001 246.938C95.2304 244.441 95.875 242.427 98.6948 241.379C103.529 239.526 108.363 237.834 113.277 236.142C114.486 235.74 115.694 235.337 116.903 234.934C118.917 234.289 120.367 234.934 121.012 236.626C121.737 238.479 120.851 240.574 118.998 241.218C116.178 242.266 113.277 243.152 110.377 244.038C109.007 244.521 107.718 245.085 106.349 245.408C104.173 245.891 103.609 247.1 103.609 249.194C103.851 252.175 103.609 255.076 103.448 258.621Z" fill="#5571D7"/>
<path d="M162.746 258.701C164.357 257.976 165.243 257.493 166.21 257.09C168.385 256.204 170.319 256.687 171.044 258.379C171.85 260.151 171.205 261.843 169.111 262.971C167.741 263.696 166.371 264.421 165.002 265.147C161.779 266.919 161.376 267.805 162.182 271.914C162.907 271.592 163.632 271.35 164.277 271.028C169.755 267.886 175.636 265.872 181.679 264.421C182.404 264.26 183.129 264.26 183.854 264.341C185.466 264.502 186.513 265.388 186.674 267C186.916 268.611 186.352 269.981 184.66 270.545C182.404 271.27 180.148 271.753 177.892 272.478C171.769 274.412 166.13 277.393 161.134 281.421C160.812 281.663 160.49 282.066 160.168 282.146C158.879 282.307 157.428 282.791 156.462 282.307C155.575 281.905 154.85 280.293 154.85 279.246C154.77 276.345 155.172 273.526 155.253 270.625C155.253 269.014 154.931 267.483 154.85 265.872C154.77 265.308 154.77 264.824 154.85 264.26C155.334 259.185 155.898 254.028 156.381 248.953C156.462 248.389 156.059 247.664 155.736 247.1C154.608 244.844 155.011 242.749 157.267 241.863C163.632 239.446 170.077 237.19 176.603 234.934C178.376 234.37 179.826 235.337 180.309 237.109C180.793 238.882 179.987 240.815 178.295 241.379C174.589 242.668 170.883 243.796 167.258 245.085C162.423 246.777 163.149 245.891 162.907 250.886C162.987 253.223 162.826 255.64 162.746 258.701Z" fill="#5571D7"/>
<path d="M237.512 279.89C232.597 279.971 228.891 277.393 226.716 272.317C226.152 270.948 225.749 269.497 225.508 268.047C225.105 265.872 226.313 263.938 228.166 263.535C230.422 263.052 232.114 264.26 232.678 266.677C232.839 267.483 233.161 268.369 233.403 269.175C234.128 271.109 235.417 272.398 237.512 272.478C239.607 272.559 241.218 271.431 242.104 269.739C242.991 268.047 242.346 266.194 241.057 264.905C239.204 263.052 237.19 261.441 235.095 259.829C231.47 257.009 228.408 253.787 227.119 249.275C225.508 243.716 227.441 238.237 231.872 236.062C238.801 232.678 246.455 237.029 247.261 244.763C247.341 245.73 247.422 246.616 247.341 247.583C247.261 249.678 246.052 250.886 243.957 251.047C241.782 251.128 240.493 250.161 240.171 248.066C240.01 247.18 240.09 246.294 239.929 245.488C239.526 243.394 237.915 242.024 236.142 242.427C234.209 242.83 233.242 244.683 233.967 246.858C234.934 249.597 236.706 251.692 238.962 253.545C241.702 255.72 244.521 257.815 246.777 260.474C251.047 265.469 250.806 271.834 246.616 276.184C244.28 278.682 241.138 279.89 237.512 279.89Z" fill="#5571D7"/>
<path d="M206.897 279.89C200.532 279.971 196.584 277.071 194.65 271.753C194.248 270.625 193.925 269.417 193.684 268.289C193.2 266.033 194.409 264.019 196.342 263.616C198.598 263.132 200.29 264.422 200.854 266.758C201.176 268.128 201.66 269.497 202.385 270.625C203.754 272.801 206.413 273.123 208.588 271.673C210.844 270.142 211.408 267.886 209.797 265.63C208.911 264.341 207.702 263.213 206.494 262.166C204.641 260.635 202.626 259.265 200.773 257.654C197.148 254.431 195.053 250.483 194.892 245.569C194.65 239.446 198.92 235.095 204.963 235.015C213.1 234.853 216.484 242.668 215.598 248.55C215.356 250.322 213.906 251.047 212.214 251.047C210.522 251.128 209.152 250.483 208.669 248.711C208.427 247.825 208.427 246.858 208.347 245.891C208.105 244.36 207.702 242.83 206.01 242.507C205.044 242.346 203.674 242.668 202.949 243.313C201.66 244.36 201.74 246.133 202.626 247.422C204.157 249.678 205.93 251.772 207.783 253.706C210.039 255.962 212.859 257.734 214.953 260.071C218.176 263.777 219.384 268.289 217.209 272.962C214.792 277.715 210.683 279.729 206.897 279.89Z" fill="#5571D7"/>
<path d="M12.0045 264.099C13.9381 263.455 15.5495 262.891 17.0802 262.407C19.4167 261.602 21.3503 262.407 22.156 264.341C22.9617 266.355 22.2365 268.289 20.0612 269.336C18.2082 270.222 16.194 270.947 14.2604 271.592C12.9713 271.995 12.4879 272.639 12.7296 273.928C12.8908 274.734 12.8908 275.54 12.8908 276.345C12.8908 278.44 11.7628 279.81 9.90977 280.052C7.65389 280.374 6.12311 279.568 5.55914 277.473C5.07574 275.459 4.9146 273.364 3.46439 271.592C2.98099 270.947 3.46439 269.497 3.62553 268.369C3.78666 267.241 4.35063 266.033 4.27007 264.985C4.02836 260.474 3.62553 256.123 3.22269 251.772C3.14213 250.886 2.65872 249.839 2.09475 249.114C0.402841 247.019 0.483408 245.247 2.57815 243.393C6.68708 239.607 11.6822 237.593 16.9997 236.142C18.8527 235.659 20.7863 235.256 22.72 234.853C25.2175 234.37 27.0706 235.498 27.554 237.593C28.0374 239.849 26.8289 241.54 24.3313 242.266C20.3835 243.393 16.4357 244.763 12.4879 246.052C11.0377 246.536 10.5543 247.502 10.7154 249.194C11.1988 253.384 11.4405 257.573 11.8434 261.843C11.7628 262.407 11.8434 263.052 12.0045 264.099Z" fill="#5571D7"/>
<path d="M141.557 269.981C143.007 269.739 143.974 269.497 145.021 269.417C147.196 269.256 148.727 270.384 149.21 272.317C149.694 274.331 148.888 276.265 146.793 276.99C143.974 277.957 141.073 278.843 138.092 279.488C135.675 280.052 133.58 278.199 133.339 275.782C133.258 275.218 133.339 274.734 133.339 274.17C133.339 262.166 133.339 250.161 133.339 238.157C133.339 237.593 133.339 236.948 133.419 236.384C133.661 234.209 135.192 232.839 137.286 232.839C139.462 232.759 140.993 234.048 141.315 236.223C141.395 237.029 141.395 237.834 141.395 238.64C141.395 248.147 141.395 257.654 141.395 267.241C141.395 268.047 141.476 268.933 141.557 269.981Z" fill="#5571D7"/>
<path d="M127.054 26.5872C125.765 19.0944 124.315 12.0851 124.799 4.83403C124.879 3.62552 125.121 2.41702 125.604 1.28908C125.846 0.644538 126.732 -0.0805664 127.296 -0.0805664C127.86 -0.0805664 128.746 0.644538 128.988 1.28908C129.471 2.57815 129.955 4.02836 129.874 5.398C129.23 12.1656 128.424 18.9333 127.699 25.7815C127.699 25.9426 127.457 26.1038 127.054 26.5872Z" fill="#5571D7"/>
<path d="M161.859 60.8282C163.632 54.6245 165.646 48.582 169.111 43.1034C169.513 42.5394 170.4 42.2977 171.044 41.9755C171.447 42.7006 171.93 43.3451 172.172 44.1508C172.333 44.5536 172.253 45.1176 172.092 45.5204C170.158 51.563 166.21 56.3164 161.859 60.8282Z" fill="#5571D7"/>
<path d="M92.6523 60.6671C91.8466 59.7003 90.9604 58.8946 90.3158 57.8472C87.9794 54.1411 85.7235 50.3545 83.5482 46.4872C83.0648 45.6816 83.1453 44.5536 83.1453 43.5868C83.1453 43.1034 83.6288 42.5394 83.8705 42.056C84.4344 42.2977 85.2401 42.4589 85.4818 42.9423C86.6097 44.7953 87.7377 46.5678 88.5434 48.582C90.0741 52.0464 91.4438 55.6719 92.8134 59.2168C92.9745 59.6197 92.9745 60.1031 93.0551 60.5059C92.894 60.5059 92.7328 60.5865 92.6523 60.6671Z" fill="#5571D7"/>
<path d="M40.6059 247.664C39.3974 252.175 38.35 256.284 37.222 260.474C36.9803 261.279 36.8998 262.085 36.5775 262.81C36.4164 263.133 35.8524 263.213 35.5301 263.455C35.4496 263.133 35.1273 262.73 35.2079 262.407C35.5301 260.877 35.933 259.426 36.2552 257.896C37.1415 254.512 38.0277 251.128 38.9945 247.825C39.0751 247.422 39.6391 247.1 39.9613 246.777C40.2836 247.1 40.5253 247.502 40.6059 247.664Z" fill="#5571D7"/>
<path d="M1.93361 257.815C2.17531 259.668 2.57814 261.602 2.73928 263.455C2.81985 263.938 2.33644 264.422 2.17531 264.905C1.85304 264.502 1.36964 264.019 1.28907 263.616C0.805666 259.749 0.40283 255.881 -6.01914e-06 251.934C-0.0805732 251.45 0.40283 250.886 0.644532 250.322C0.886233 250.806 1.28907 251.208 1.36964 251.772C1.69191 253.787 1.85304 255.72 2.09474 257.734C2.09474 257.815 2.01417 257.815 1.93361 257.815Z" fill="#5571D7"/>
<path d="M60.2643 245.649C60.4254 244.924 60.3448 243.957 60.7477 243.394C62.1173 241.379 63.5675 239.365 65.1789 237.512C65.5011 237.109 66.3068 237.19 66.8708 237.109C66.7096 237.593 66.7096 238.237 66.3874 238.64C64.9372 240.735 63.4064 242.83 61.8756 244.924C61.5533 245.327 61.1505 245.569 60.8282 245.972C60.5865 245.811 60.4254 245.73 60.2643 245.649Z" fill="#5571D7"/>
<path d="M224.944 250.645C224.38 249.92 223.896 249.597 223.977 249.275C224.138 247.18 224.299 245.085 224.621 242.991C224.621 242.749 225.266 242.507 225.588 242.266C225.749 242.588 226.072 242.91 226.072 243.232C225.749 245.488 225.427 247.744 224.944 250.645Z" fill="#5571D7"/>
<path d="M192.717 250.161C192.475 249.678 191.992 249.275 192.072 248.792C192.233 246.858 192.394 244.924 192.717 243.071C192.797 242.749 193.281 242.507 193.603 242.185C193.845 242.588 194.248 242.91 194.167 243.313C193.925 245.569 193.522 247.744 193.2 250C193.039 250 192.878 250.081 192.717 250.161Z" fill="#5571D7"/>
<path d="M193.281 252.014C194.086 252.578 194.57 252.739 194.811 253.142C195.617 254.189 196.423 255.317 197.067 256.445C197.309 256.768 197.148 257.332 197.148 257.815C196.745 257.734 196.181 257.734 195.939 257.493C194.731 256.123 193.442 254.673 193.281 252.014Z" fill="#5571D7"/>
<path d="M225.588 252.014C226.233 252.739 226.797 253.303 227.199 253.867C227.844 254.753 228.569 255.72 229.133 256.606C229.294 256.848 229.294 257.332 229.133 257.654C229.053 257.815 228.569 257.896 228.247 257.734C227.038 257.332 225.266 254.028 225.588 252.014Z" fill="#5571D7"/>
<path d="M102.401 156.059C104.657 153.078 112.472 153.239 114.405 155.978C112.552 159.12 104.254 159.04 102.401 156.059Z" fill="#5571D7"/>
<path d="M137.609 156.139C140.267 152.917 148.324 153.4 149.694 156.22C147.599 158.879 140.429 159.201 137.609 156.139Z" fill="#5571D7"/>
</g>
<defs>
<clipPath id="clip0">
<rect width="250" height="291.976" fill="white"/>
</clipPath>
</defs>
</svg>
